<svg width="20" height="20" viewBox="0 0 20 20" fill="none" xmlns="http://www.w3.org/2000/svg">
<path fill-rule="evenodd" clip-rule="evenodd" d="M4.16667 8.33594C3.25 8.33594 2.5 9.08594 2.5 10.0026C2.5 10.9193 3.25 11.6693 4.16667 11.6693C5.08333 11.6693 5.83333 10.9193 5.83333 10.0026C5.83333 9.08594 5.08333 8.33594 4.16667 8.33594ZM15.8333 8.33594C14.9167 8.33594 14.1667 9.08594 14.1667 10.0026C14.1667 10.9193 14.9167 11.6693 15.8333 11.6693C16.75 11.6693 17.5 10.9193 17.5 10.0026C17.5 9.08594 16.75 8.33594 15.8333 8.33594ZM8.33333 10.0026C8.33333 9.08594 9.08333 8.33594 10 8.33594C10.9167 8.33594 11.6667 9.08594 11.6667 10.0026C11.6667 10.9193 10.9167 11.6693 10 11.6693C9.08333 11.6693 8.33333 10.9193 8.33333 10.0026Z" fill="#201F37"/>
</svg>
